<svg xmlns="http://www.w3.org/2000/svg" width="1105.4915" height="362.57584" viewBox="0 0 1105.4915 362.57583">
  <defs>
    <linearGradient id="g" x1="-86.6157" x2="-80.521103" y1="123.9641" y2="184.14819" gradientTransform="matrix(1 0 0 -1 207.66137 267.1125)" gradientUnits="userSpaceOnUse">
      <stop offset="0" stop-opacity=".15"/>
      <stop offset=".3" stop-opacity=".06"/>
      <stop offset="1" stop-opacity=".03"/>
    </linearGradient>
    <linearGradient id="f" x1="-86.0093" x2="-127.911" y1="136.23849" y2="93.574898" gradientTransform="matrix(1 0 0 -1 207.66137 267.1125)" gradientUnits="userSpaceOnUse">
      <stop offset="0" stop-opacity=".15"/>
      <stop offset=".3" stop-opacity=".06"/>
      <stop offset="1" stop-opacity=".03"/>
    </linearGradient>
    <linearGradient id="e" x1="-170.1362" x2="-170.1362" y1="155.9202" y2="216.8683" gradientTransform="matrix(1 0 0 -1 207.66137 267.1125)" gradientUnits="userSpaceOnUse">
      <stop offset="0" stop-opacity=".15"/>
      <stop offset=".3" stop-opacity=".06"/>
      <stop offset="1" stop-opacity=".03"/>
    </linearGradient>
    <linearGradient id="d" x1="-64.337402" x2="-101.6683" y1="98.252197" y2="188.15109" gradientTransform="matrix(1 0 0 -1 207.66137 267.1125)" gradientUnits="userSpaceOnUse">
      <stop offset="0" stop-color="#e4b022"/>
      <stop offset=".3" stop-color="#fcd209"/>
    </linearGradient>
    <linearGradient id="c" x1="-181.73779" x2="-146.69279" y1="104.4104" y2="162.3109" gradientTransform="matrix(1 0 0 -1 207.66137 267.1125)" gradientUnits="userSpaceOnUse">
      <stop offset="0" stop-color="#388b41"/>
      <stop offset="1" stop-color="#4cb749"/>
    </linearGradient>
    <linearGradient id="b" x1="-114.519" x2="-114.519" y1="250.3918" y2="181.0621" gradientTransform="matrix(1 0 0 -1 207.66137 267.1125)" gradientUnits="userSpaceOnUse">
      <stop offset="0" stop-color="#f06b59"/>
      <stop offset="1" stop-color="#df2227"/>
    </linearGradient>
    <linearGradient id="a" x1="-175.6665" x2="-175.6665" y1="582.19751" y2="581.43579" gradientTransform="matrix(82 0 0 -82 14495.133 47811.036)" gradientUnits="userSpaceOnUse">
      <stop offset="0" stop-color="#81b4e0"/>
      <stop offset="1" stop-color="#0c5a94"/>
    </linearGradient>
  </defs>
  <g data-name="Layer 2">
    <g data-name="Layer 1" transform="translate(-5.1613571 -16.336587)">
      <path fill="#77787a" d="M518.59700629 275.78853283c-4.95172715 2.36821733-15.93164388 6.02818957-29.9256554 6.02818957-31.43120768 0-51.88548883-21.31545108-51.88548883-53.17574866 0-32.07858023 21.95983345-55.54396599 55.97455096-55.54396599 11.19520921 0 21.09866351 2.7988023 26.26568315 5.5976046l-4.3058497 14.42459649c-4.52114218-2.36821734-11.62429909-4.95172715-21.95983345-4.95172715-23.8974658 0-36.8150149 17.86927623-36.8150149 39.4000198 0 24.1127583 15.5010589 38.96494958 36.16764236 38.96494958 10.76462424 0 17.86927624-2.5850049 23.25158836-4.95172715zm22.17512593-149.1947018h18.94573866v65.23212781h.43058497c3.01409479-5.38231212 7.75052946-10.33403927 13.56342655-13.56342654 5.5976046-3.22938727 12.27167163-5.16701964 19.37482854-5.16701964 13.99401151 0 36.38442993 8.6116994 36.38442993 44.35025187v62.00274054h-18.94573866v-59.8483206c0-16.79281382-6.24348206-30.78682533-24.1127583-30.78682533-12.27167163 0-21.74304588 8.6116994-25.4045132 18.7289511-1.07646243 2.7988023-1.29175491 5.5976046-1.29175491 9.04228435v62.86391048h-18.94573867zm119.48583398 81.16377169c0-12.27167164-.21678757-22.82249848-.86116994-32.5091652h16.57752133l.86116994 20.66807853h.64587745c4.73643467-13.9940115 16.36222885-22.82249847 29.06448545-22.82249847 1.93763236 0 3.44467976.21678757 5.16552455.43058497v17.86927624c-1.93912745-.43058497-3.87675981-.43058497-6.45727946-.43058497-13.34813406 0-22.82249847 9.9034543-25.4045132 24.1112632-.43058497 2.58500491-.64587746 5.8128971-.64587746 8.82699188v55.5424709H660.2579662zm162.54582602 18.73044617c0 38.5358597-26.9115606 55.3301686-51.88548883 55.3301686-27.98802303 0-49.9463614-20.66658346-49.9463614-53.60633363 0-34.66209005 23.03629588-55.11338102 51.67169145-55.11338102 29.92266521-.00149509 50.16015878 21.74155079 50.16015878 53.38954605zm-82.45552659 1.07646243c0 22.82100339 12.91904418 40.041412 31.4312077 40.041412 18.08456872 0 31.64799526-17.0081063 31.64799526-40.47199697 0-17.65547884-8.82699188-39.83060478-31.2174103-39.83060478-22.17512593.0014951-31.86179266 20.66957363-31.86179266 40.26118975zm106.3544875-24.1127583c0-10.98141181-.4290899-19.59161612-.85967486-28.2033155h16.57752133l.86116994 17.0081063h.64587745c5.81439218-9.90345431 15.5010589-19.16103116 32.93975018-19.16103116 13.99102134 0 24.75863575 8.6116994 29.27828284 20.88337103h.43058497c3.22938727-6.02669449 7.53523697-10.33254418 11.84108667-13.56193146 6.24348206-4.73643466 12.91754908-7.31994448 22.82100339-7.31994448 13.9940115 0 34.44679756 9.04228436 34.44679756 45.2114218v61.1415706h-18.51515369V220.6751518c0-20.23749357-7.53523697-32.07858023-22.6057109-32.07858023-10.97991673 0-19.15953606 7.96582194-22.60421582 17.00661121-.86116994 2.7988023-1.50854248 6.02818958-1.50854248 9.47286933v64.37095787H911.936376v-62.43183042c0-16.57752133-7.31994448-28.4171129-21.74304587-28.4171129-11.62579418 0-20.45428114 9.47137424-23.46688085 18.94424357-1.07646242 2.5850049-1.50704739 6.02818958-1.50704739 9.25757685v62.6471229h-18.51664878zm190.10176898 27.34065048c.43058497 25.62279587 16.57752133 36.16764236 35.7370574 36.16764236 13.56342654 0 21.95983344-2.36821733 28.84919296-5.38231212l3.44467975 13.56193146c-6.67406703 3.01558987-18.29687103 6.67406703-34.87588745 6.67406703-32.07708515 0-51.2381163-21.313956-51.2381163-52.7436686 0-31.4312077 18.5151537-55.97455097 48.87139406-55.97455097 34.23150508 0 43.05999204 29.7103629 43.05999204 48.87139405 0 3.87526473-.21828266 6.67406703-.64886762 8.8240017h-73.19944484zm55.543966-13.56193145c.21678757-11.84108667-4.95172716-30.57153284-26.26418806-30.57153284-19.37632364 0-27.55743806 17.43869126-29.06149528 30.57153284z"/>
      <circle cx="186.82365" cy="198.31578" r="178.44868" fill="#fff"/>
      <path fill-opacity=".1" d="M300.3809 230.76041c0-62.71735-50.84206-113.55942-113.55726-113.55942-62.71734 0-113.559404 50.84207-113.559404 113.55942h32.444634c0-44.79903 36.31576-81.11479 81.11264-81.11479 44.79687 0 81.11263 36.31576 81.11263 81.11479"/>
      <circle cx="194.93428" cy="221.02725" r="61.64629" fill-opacity=".1"/>
      <circle cx="186.82365" cy="198.31364" r="66.511818" fill="url(#a)"/>
      <path fill="url(#b)" d="M349.04892 117.20099C304.38617 27.343193 195.33671-9.2962366 105.47677 35.36439 77.456892 49.290207 53.510422 70.215147 35.954084 96.114215L108.9561 222.64978c-13.444604-42.73145 10.29958-88.2736 53.03101-101.71607 7.51442-2.36356 15.33759-3.622 23.21399-3.7306"/>
      <path fill="url(#c)" d="M35.954084 96.114215C-19.921725 179.46479 2.3510975 292.32792 85.70167 348.20371c25.78834 17.28805 55.57556 27.6792 86.52114 30.18329l76.24711-129.77852c-28.50964 34.5548-79.63061 39.45439-114.18542 10.94476-11.73687-9.68206-20.51398-22.46871-25.3284-36.90134"/>
      <path fill="url(#d)" d="M172.22281 378.387c100.05943 7.56339 187.30667-67.41891 194.8722-167.47836 2.44021-32.28493-3.78809-64.63375-18.04822-93.70553H185.2011c44.79473.20655 80.94441 36.6884 80.73785 81.48529-.083 18.12274-6.23468 35.7004-17.47116 49.92008"/>
      <path fill="url(#e)" d="M35.954084 96.114215L108.9561 222.64978c-5.4085-18.19941-4.25866-37.719 3.24297-55.15823L39.197057 91.24656"/>
      <path fill="url(#f)" d="M172.22281 378.387l76.24711-129.77852c-12.03072 14.34531-28.6523 24.087-47.04544 27.57698L168.97772 378.387"/>
      <path fill="url(#g)" d="M349.04892 117.20099H185.2011c24.67895.11497 47.9653 11.45794 63.26669 30.82421l103.8241-25.95656"/>
    </g>
  </g>
</svg>