<svg xmlns="http://www.w3.org/2000/svg" viewBox="-13.2 4.9 256 238.6"><linearGradient id="a" x1="63.3" x2="241.7" y1="84" y2="84" gradientTransform="matrix(.8 0 0 -.8 3.9 234.4)" gradientUnits="userSpaceOnUse"><stop offset="0" stop-color="#0c59a4"/><stop offset="1" stop-color="#114a8b"/></linearGradient><radialGradient id="b" cx="161.8" cy="68.9" r="95.4" gradientTransform="matrix(.8 0 0 -.8 3.9 220)" gradientUnits="userSpaceOnUse"><stop offset=".7" stop-opacity="0"/><stop offset=".9" stop-opacity=".5"/><stop offset="1"/></radialGradient><linearGradient id="c" x1="157.4" x2="46" y1="161.4" y2="40.1" gradientTransform="matrix(.8 0 0 -.8 3.9 234.4)" gradientUnits="userSpaceOnUse"><stop offset="0" stop-color="#1b9de2"/><stop offset=".2" stop-color="#1595df"/><stop offset=".7" stop-color="#0680d7"/><stop offset="1" stop-color="#0078d4"/></linearGradient><radialGradient id="d" cx="-340.3" cy="63" r="143.2" gradientTransform="matrix(.1 -.8 -.7 -.1 151.7 -93.2)" gradientUnits="userSpaceOnUse"><stop offset=".8" stop-opacity="0"/><stop offset=".9" stop-opacity=".5"/><stop offset="1"/></radialGradient><radialGradient id="e" cx="113.4" cy="570.2" r="202.4" gradientTransform="matrix(0 .8 1.8 0 -983.3 -77.5)" gradientUnits="userSpaceOnUse"><stop offset="0" stop-color="#35c1f1"/><stop offset=".1" stop-color="#34c1ed"/><stop offset=".2" stop-color="#2fc2df"/><stop offset=".3" stop-color="#2bc3d2"/><stop offset=".7" stop-color="#36c752"/></radialGradient><radialGradient id="f" cx="376.5" cy="568" r="97.3" gradientTransform="matrix(.2 .8 .7 -.2 -250.4 -112.5)" gradientUnits="userSpaceOnUse"><stop offset="0" stop-color="#66eb6e"/><stop offset="1" stop-color="#66eb6e" stop-opacity="0"/></radialGradient><path fill="url(#a)" d="M201.1 175.3a78.4 78.4 0 0 1-8.8 4 85.3 85.3 0 0 1-30 5.4c-39.7 0-74.2-27.2-74.2-62.2A26.3 26.3 0 0 1 102 99.6c-35.8 1.5-45 38.9-45 60.7 0 61.9 57 68.1 69.2 68.1 6.7 0 16.6-1.9 22.6-3.8l1.1-.3a107.4 107.4 0 0 0 55.8-44.2 3.3 3.3 0 0 0-4.5-4.8z"/><path fill="url(#b)" d="M201.1 175.3a78.4 78.4 0 0 1-8.8 4 85.3 85.3 0 0 1-30 5.4c-39.7 0-74.2-27.2-74.2-62.2A26.3 26.3 0 0 1 102 99.6c-35.8 1.5-45 38.9-45 60.7 0 61.9 57 68.1 69.2 68.1 6.7 0 16.6-1.9 22.6-3.8l1.1-.3a107.4 107.4 0 0 0 55.8-44.2 3.3 3.3 0 0 0-4.5-4.8z" opacity=".3"/><path fill="url(#c)" d="M96.2 218a66.3 66.3 0 0 1-19-18 67.6 67.6 0 0 1 24.7-100.4c2.6-1.2 7-3.4 13-3.3a27 27 0 0 1 21.5 10.9 26.7 26.7 0 0 1 5.3 15.6c0-.2 20.5-66.6-67-66.6C38 56.2 7.9 91 7.9 121.6A109 109 0 0 0 18 168.5a107.1 107.1 0 0 0 130.8 56.2 63.2 63.2 0 0 1-52.5-6.7z"/><path fill="url(#d)" d="M96.2 218a66.3 66.3 0 0 1-19-18 67.6 67.6 0 0 1 24.7-100.4c2.6-1.2 7-3.4 13-3.3a27 27 0 0 1 21.5 10.9 26.7 26.7 0 0 1 5.3 15.6c0-.2 20.5-66.6-67-66.6C38 56.2 7.9 91 7.9 121.6A109 109 0 0 0 18 168.5a107.1 107.1 0 0 0 130.8 56.2 63.2 63.2 0 0 1-52.5-6.7z" opacity=".4"/><path fill="url(#e)" d="M135.2 140.5c-.7.8-2.7 2-2.7 4.7 0 2.2 1.4 4.3 3.9 6 12 8.4 34.7 7.3 34.8 7.3a49.8 49.8 0 0 0 25.3-7 51.4 51.4 0 0 0 25.5-44.2c.2-18.8-6.7-31.3-9.5-36.8-17.7-34.7-56-54.6-97.6-54.6A107.1 107.1 0 0 0 7.7 121.5c.4-30.6 30.8-55.3 67-55.3 3 0 19.6.3 35.1 8.4a60.7 60.7 0 0 1 25.8 24.5c5.2 9 6.1 20.2 6.1 24.7s-2.3 11.2-6.5 16.7z"/><path fill="url(#f)" d="M135.2 140.5c-.7.8-2.7 2-2.7 4.7 0 2.2 1.4 4.3 3.9 6 12 8.4 34.7 7.3 34.8 7.3a49.8 49.8 0 0 0 25.3-7 51.4 51.4 0 0 0 25.5-44.2c.2-18.8-6.7-31.3-9.5-36.8-17.7-34.7-56-54.6-97.6-54.6A107.1 107.1 0 0 0 7.7 121.5c.4-30.6 30.8-55.3 67-55.3 3 0 19.6.3 35.1 8.4a60.7 60.7 0 0 1 25.8 24.5c5.2 9 6.1 20.2 6.1 24.7s-2.3 11.2-6.5 16.7z"/></svg>