<svg xmlns="http://www.w3.org/2000/svg" preserveAspectRatio="xMidYMid" viewBox="0 0 256 265"><defs><radialGradient id="b" cx="-7907.2" cy="-8515.1" r="80.8" gradientTransform="matrix(3.3 0 0 3.3 26368 28186.3)" gradientUnits="userSpaceOnUse"><stop offset=".1" stop-color="#ffbd4f"/><stop offset=".2" stop-color="#ffac31"/><stop offset=".2" stop-color="#ff9d17"/><stop offset=".3" stop-color="#ff980e"/><stop offset=".4" stop-color="#ff563b"/><stop offset=".5" stop-color="#ff3750"/><stop offset=".7" stop-color="#f5156c"/><stop offset=".8" stop-color="#eb0878"/><stop offset=".9" stop-color="#e50080"/></radialGradient><radialGradient id="c" cx="-7936.7" cy="-8482.1" r="80.8" gradientTransform="matrix(3.3 0 0 3.3 26368 28186.3)" gradientUnits="userSpaceOnUse"><stop offset=".3" stop-color="#960e18"/><stop offset=".4" stop-color="#b11927" stop-opacity=".7"/><stop offset=".4" stop-color="#db293d" stop-opacity=".3"/><stop offset=".5" stop-color="#f5334b" stop-opacity=".1"/><stop offset=".5" stop-color="#ff3750" stop-opacity="0"/></radialGradient><radialGradient id="d" cx="-7927" cy="-8533.5" r="58.5" gradientTransform="matrix(3.3 0 0 3.3 26368 28186.3)" gradientUnits="userSpaceOnUse"><stop offset=".1" stop-color="#fff44f"/><stop offset=".3" stop-color="#ffdc3e"/><stop offset=".5" stop-color="#ff9d12"/><stop offset=".5" stop-color="#ff980e"/></radialGradient><radialGradient id="e" cx="-7945.6" cy="-8461" r="38.5" gradientTransform="matrix(3.3 0 0 3.3 26368 28186.3)" gradientUnits="userSpaceOnUse"><stop offset=".4" stop-color="#3a8ee6"/><stop offset=".5" stop-color="#5c79f0"/><stop offset=".7" stop-color="#9059ff"/><stop offset="1" stop-color="#c139e6"/></radialGradient><radialGradient id="f" cx="-7935.6" cy="-8491.5" r="20.4" gradientTransform="matrix(3.2 -.8 1 3.8 33366 25904)" gradientUnits="userSpaceOnUse"><stop offset=".2" stop-color="#9059ff" stop-opacity="0"/><stop offset=".3" stop-color="#8c4ff3" stop-opacity=".1"/><stop offset=".7" stop-color="#7716a8" stop-opacity=".5"/><stop offset="1" stop-color="#6e008b" stop-opacity=".6"/></radialGradient><radialGradient id="g" cx="-7937.7" cy="-8518.4" r="27.7" gradientTransform="matrix(3.3 0 0 3.3 26368 28186.3)" gradientUnits="userSpaceOnUse"><stop offset="0" stop-color="#ffe226"/><stop offset=".1" stop-color="#ffdb27"/><stop offset=".3" stop-color="#ffc82a"/><stop offset=".5" stop-color="#ffa930"/><stop offset=".7" stop-color="#ff7e37"/><stop offset=".8" stop-color="#ff7139"/></radialGradient><radialGradient id="h" cx="-7916" cy="-8536" r="118.1" gradientTransform="matrix(3.3 0 0 3.3 26368 28186.3)" gradientUnits="userSpaceOnUse"><stop offset=".1" stop-color="#fff44f"/><stop offset=".5" stop-color="#ff980e"/><stop offset=".6" stop-color="#ff5634"/><stop offset=".7" stop-color="#ff3647"/><stop offset=".9" stop-color="#e31587"/></radialGradient><radialGradient id="i" cx="-7927.2" cy="-8522.9" r="86.5" gradientTransform="matrix(.3 3.3 -2.2 .2 -15599 27941.2)" gradientUnits="userSpaceOnUse"><stop offset="0" stop-color="#fff44f"/><stop offset=".1" stop-color="#ffe847"/><stop offset=".2" stop-color="#ffc830"/><stop offset=".3" stop-color="#ff980e"/><stop offset=".4" stop-color="#ff8b16"/><stop offset=".5" stop-color="#ff672a"/><stop offset=".6" stop-color="#ff3647"/><stop offset=".7" stop-color="#e31587"/></radialGradient><radialGradient id="j" cx="-7938.4" cy="-8508.2" r="73.7" gradientTransform="matrix(3.3 0 0 3.3 26368 28186.3)" gradientUnits="userSpaceOnUse"><stop offset=".1" stop-color="#fff44f"/><stop offset=".5" stop-color="#ff980e"/><stop offset=".6" stop-color="#ff5634"/><stop offset=".7" stop-color="#ff3647"/><stop offset=".9" stop-color="#e31587"/></radialGradient><radialGradient id="k" cx="-7918.9" cy="-8503.9" r="80.7" gradientTransform="matrix(3.3 0 0 3.3 26368 28186.3)" gradientUnits="userSpaceOnUse"><stop offset=".1" stop-color="#fff44f"/><stop offset=".2" stop-color="#ffe141"/><stop offset=".5" stop-color="#ffaf1e"/><stop offset=".6" stop-color="#ff980e"/></radialGradient><linearGradient id="a" x1="70.8" x2="6.4" y1="12.4" y2="74.5" gradientTransform="translate(-3) scale(3.3)" gradientUnits="userSpaceOnUse"><stop offset="0" stop-color="#fff44f"/><stop offset=".1" stop-color="#ffe847"/><stop offset=".2" stop-color="#ffc830"/><stop offset=".4" stop-color="#ff980e"/><stop offset=".4" stop-color="#ff8b16"/><stop offset=".5" stop-color="#ff672a"/><stop offset=".5" stop-color="#ff3647"/><stop offset=".7" stop-color="#e31587"/></linearGradient><linearGradient id="l" x1="70" x2="15.3" y1="12.1" y2="66.8" gradientTransform="translate(-3) scale(3.3)" gradientUnits="userSpaceOnUse"><stop offset=".2" stop-color="#fff44f" stop-opacity=".8"/><stop offset=".3" stop-color="#fff44f" stop-opacity=".6"/><stop offset=".5" stop-color="#fff44f" stop-opacity=".2"/><stop offset=".6" stop-color="#fff44f" stop-opacity="0"/></linearGradient></defs><path fill="url(#a)" d="M248 88.7c-5.5-13.4-16.8-27.9-25.7-32.4a133.2 133.2 0 0 1 13 38.9v.2c-14.5-36.1-39-50.7-59.1-82.4a155.1 155.1 0 0 1-4.4-7.6c-.9-1.6-1.5-3.3-2-5 0-.2 0-.4-.2-.4h-.3l-.1.1a93.5 93.5 0 0 0-44.1 71.1 64.1 64.1 0 0 0-35.3 13.6c-1-.9-2.1-1.7-3.3-2.5-2.9-10.2-3-21-.3-31.3a95 95 0 0 0-30.9 23.8c-5.1-6.4-4.8-27.6-4.5-32a23 23 0 0 0-4.3 2.2A112 112 0 0 0 22 70C13.8 81.8 8 95 4.8 108.9l-.1.9c-.5 2.6-1 5.3-1.3 8v.3a130 130 0 0 0-2.1 17.6v.7A128.2 128.2 0 0 0 255.8 158l.5-5a131 131 0 0 0-8.3-64.4ZM100.3 189l1.8.9-1.8-.9Zm29.4-77.3Zm105.6-16.3v-.1.1Z"/><path fill="url(#b)" d="M248 88.7c-5.5-13.4-16.8-27.9-25.7-32.4a133.2 133.2 0 0 1 13 38.9v.2a116 116 0 0 1-4 86.5c-14.7 31.5-50.2 63.8-105.9 62.3-60-1.7-113-46.3-123-104.8-1.7-9.2 0-13.9 1-21.4a89 89 0 0 0-2.1 17.7v.7A128.2 128.2 0 0 0 255.8 158l.5-5a131 131 0 0 0-8.3-64.4Z"/><path fill="url(#c)" d="M248 88.7c-5.5-13.4-16.8-27.9-25.7-32.4a133.2 133.2 0 0 1 13 38.9v.2a116 116 0 0 1-4 86.5c-14.7 31.5-50.2 63.8-105.9 62.3-60-1.7-113-46.3-123-104.8-1.7-9.2 0-13.9 1-21.4a89 89 0 0 0-2.1 17.7v.7A128.2 128.2 0 0 0 255.8 158l.5-5a131 131 0 0 0-8.3-64.4Z"/><path fill="url(#d)" d="m185.8 103.8.8.6c-3.3-5.7-7.3-11-12-15.6C134.8 49 164.2 2.5 169.2.1a93.5 93.5 0 0 0-44.1 71.1l4.5-.2a64.7 64.7 0 0 1 56.2 32.8Z"/><path fill="url(#e)" d="M129.7 111.7c-.2 3.2-11.5 14.2-15.4 14.2-36.5 0-42.4 22-42.4 22a54.1 54.1 0 0 0 36.1 44.6 57 57 0 0 0 16.7 3.2c63.9 3 76.2-76.4 30.2-99.4a44.2 44.2 0 0 1 30.9 7.5A64.7 64.7 0 0 0 129.6 71l-4.5.2a64.1 64.1 0 0 0-35.3 13.6c2 1.7 4.2 3.9 8.8 8.4 8.7 8.6 31 17.5 31 18.5Z"/><path fill="url(#f)" d="M129.7 111.7c-.2 3.2-11.5 14.2-15.4 14.2-36.5 0-42.4 22-42.4 22a54.1 54.1 0 0 0 36.1 44.6 57 57 0 0 0 16.7 3.2c63.9 3 76.2-76.4 30.2-99.4a44.2 44.2 0 0 1 30.9 7.5A64.7 64.7 0 0 0 129.6 71l-4.5.2a64.1 64.1 0 0 0-35.3 13.6c2 1.7 4.2 3.9 8.8 8.4 8.7 8.6 31 17.5 31 18.5Z"/><path fill="url(#g)" d="m83.9 80.5 2.6 1.8c-3-10.2-3-21-.4-31.3a95 95 0 0 0-30.8 23.8c.6 0 19.2-.3 28.6 5.7Z"/><path fill="url(#h)" d="M2.5 139.4c9.9 58.5 62.8 103 123 104.8a110.3 110.3 0 0 0 105.9-62.3 116 116 0 0 0 4-86.5v-.2.2c4.5 29.7-10.6 58.4-34.2 77.9v.2c-46 37.4-90 22.6-99 16.5l-1.8-1c-26.9-12.8-38-37.2-35.6-58.1a33 33 0 0 1-30.3-19.1 48.3 48.3 0 0 1 47.1-2 63.8 63.8 0 0 0 48.1 2c0-1-22.3-10-31-18.5l-8.8-8.5c-1-.9-2.2-1.7-3.3-2.5l-2.7-1.7c-9.3-6.1-28-5.8-28.5-5.7h-.1c-5-6.5-4.7-27.7-4.4-32.2-1.5.7-3 1.4-4.3 2.3A112 112 0 0 0 22 70v.1a111 111 0 0 0-17.2 38.8c0 .3-4.6 20.2-2.3 30.5Z"/><path fill="url(#i)" d="M174.7 88.8c4.6 4.6 8.6 9.9 11.9 15.6l1.9 1.6c29 26.7 13.8 64.6 12.7 67.3 23.6-19.5 38.7-48.2 34.1-77.9-14.5-36.1-39-50.7-59.1-82.4a155.1 155.1 0 0 1-4.4-7.6c-.9-1.6-1.5-3.3-2-5 0-.2 0-.4-.2-.4h-.3l-.1.1c-5 2.4-34.4 48.9 5.5 88.7Z"/><path fill="url(#j)" d="m188.5 106-2-1.6-.8-.6c-9-6.3-20-9-30.9-7.5 46.1 23 33.8 102.4-30.1 99.4a57 57 0 0 1-20.5-4.8l-2.1-1c9 6.1 53 21 99-16.5v-.1c1.2-2.7 16.4-40.6-12.6-67.4Z"/><path fill="url(#k)" d="M72 148s5.8-22 42.3-22c4 0 15.2-11 15.4-14.3-15.7 5.7-33 5-48.1-1.9a48.3 48.3 0 0 0-47.2 2 33 33 0 0 0 30.4 19c-2.4 21 8.7 45.4 35.5 58.2l1.8.9a54.1 54.1 0 0 1-30.2-42Z"/><path fill="url(#l)" d="M248 88.7c-5.5-13.4-16.8-27.9-25.7-32.4a133.2 133.2 0 0 1 13 38.9v.2c-14.5-36.1-39-50.7-59.1-82.4a155.1 155.1 0 0 1-4.4-7.6c-.9-1.6-1.5-3.3-2-5 0-.2 0-.4-.2-.4h-.3l-.1.1a93.5 93.5 0 0 0-44.1 71.1l4.5-.2a64.7 64.7 0 0 1 56.2 32.8c-9-6.3-20-9-31-7.5 46.1 23 33.8 102.4-30.1 99.4a57 57 0 0 1-20.4-4.8l-2.2-1-1.8-.9 1.8.9a54.1 54.1 0 0 1-30.2-42s6-22 42.4-22c4 0 15.2-11 15.4-14.2 0-1-22.4-9.9-31-18.5l-8.9-8.4c-1-.9-2.1-1.7-3.3-2.5-2.9-10.2-3-21-.3-31.3a95 95 0 0 0-30.9 23.8c-5.1-6.4-4.8-27.6-4.5-32a23 23 0 0 0-4.3 2.2A112 112 0 0 0 22 70C13.8 81.8 8 95 4.8 108.9l-.1.9c-.3 1-1.4 6.8-1.5 8 0 .1 0 0 0 0-1 6-1.6 12-1.9 18v.6A128.2 128.2 0 0 0 255.8 158l.5-5a131 131 0 0 0-8.3-64.4Zm-12.7 6.6v.1-.1Z"/></svg>