<svg xmlns="http://www.w3.org/2000/svg" preserveAspectRatio="xMidYMid" viewBox="0 0 256 256"><path fill="#FFF" d="M128 199.2a71.2 71.2 0 1 0 0-142.4 71.2 71.2 0 0 0 0 142.4Z"/><path fill="#229342" d="M35.9 93a370.5 370.5 0 0 0-18.7-29A128 128 0 0 0 128 256a518.6 518.6 0 0 0 24-35.7c8.1-14 18.6-34.2 31.4-60.3a64 64 0 0 1-110.8 0 2897 2897 0 0 0-36.7-67Z"/><path fill="#FBC116" d="M128 256A128 128 0 0 0 238.8 64a607.7 607.7 0 0 0-53.6-3.6C172 60.4 153 61.6 128 64a64 64 0 0 1 55.4 96L128 256Z"/><path fill="#1A73E8" d="M128 178.7a50.7 50.7 0 1 0 0-101.4 50.7 50.7 0 0 0 0 101.4Z"/><path fill="#E33B2E" d="M128 64h110.8a128 128 0 0 0-221.6 0l55.4 96A64 64 0 0 1 128 64Z"/></svg>