<?xml version="1.0" encoding="UTF-8" standalone="no"?>
<!-- Created with Inkscape (http://www.inkscape.org/) -->

<svg
   xmlns:dc="http://purl.org/dc/elements/1.1/"
   xmlns:cc="http://creativecommons.org/ns#"
   xmlns:rdf="http://www.w3.org/1999/02/22-rdf-syntax-ns#"
   xmlns:svg="http://www.w3.org/2000/svg"
   xmlns="http://www.w3.org/2000/svg"
   xmlns:sodipodi="http://sodipodi.sourceforge.net/DTD/sodipodi-0.dtd"
   xmlns:inkscape="http://www.inkscape.org/namespaces/inkscape"
   width="64px"
   height="64px"
   id="svg3002"
   version="1.1"
   inkscape:version="0.48.1 "
   sodipodi:docname="Nouveau document 3">
  <defs
     id="defs3004" />
  <sodipodi:namedview
     id="base"
     pagecolor="#ffffff"
     bordercolor="#666666"
     borderopacity="1.0"
     inkscape:pageopacity="0.0"
     inkscape:pageshadow="2"
     inkscape:zoom="5.5"
     inkscape:cx="6.5454545"
     inkscape:cy="26.017045"
     inkscape:current-layer="layer1"
     showgrid="true"
     inkscape:document-units="px"
     inkscape:grid-bbox="true"
     inkscape:window-width="1366"
     inkscape:window-height="716"
     inkscape:window-x="-8"
     inkscape:window-y="-8"
     inkscape:window-maximized="1" />
  <metadata
     id="metadata3007">
    <rdf:RDF>
      <cc:Work
         rdf:about="">
        <dc:format>image/svg+xml</dc:format>
        <dc:type
           rdf:resource="http://purl.org/dc/dcmitype/StillImage" />
        <dc:title></dc:title>
      </cc:Work>
    </rdf:RDF>
  </metadata>
  <g
     id="layer1"
     inkscape:label="Layer 1"
     inkscape:groupmode="layer">
    <path
       sodipodi:type="arc"
       style="fill:#0000ff;fill-opacity:1"
       id="path3012"
       sodipodi:cx="45.18182"
       sodipodi:cy="15"
       sodipodi:rx="12.818182"
       sodipodi:ry="12.818182"
       d="m 58.000002,15 a 12.818182,12.818182 0 1 1 -25.636364,0 12.818182,12.818182 0 1 1 25.636364,0 z"
       transform="matrix(2.3404255,0,0,2.3404255,-73.744683,-3.1063825)" />
    <g
       style="font-size:56px;font-style:normal;font-weight:normal;line-height:125%;letter-spacing:0px;word-spacing:0px;fill:#ffffff;fill-opacity:1;stroke:none;font-family:Sans"
       id="text3014">
      <path
         d="m 30.017578,25.966797 -8.121094,0 0,-3.9375 12.933594,0 0,23.488281 8.175781,0 0,3.964844 -22.011718,0 0,-3.964844 9.023437,0 z m 1.667969,-15.449219 c 0.52863,3.9e-5 1.020817,0.09574 1.476562,0.28711 0.455712,0.191444 0.852196,0.460324 1.189453,0.80664 0.337222,0.346392 0.601544,0.742876 0.792969,1.189453 0.191387,0.446651 0.28709,0.934281 0.28711,1.462891 -2e-5,0.510451 -0.09572,0.993524 -0.28711,1.449219 -0.191425,0.455762 -0.455747,0.856803 -0.792969,1.203125 -0.337257,0.346386 -0.733741,0.615266 -1.189453,0.80664 -0.455745,0.191438 -0.947932,0.287141 -1.476562,0.28711 -0.528661,3.1e-5 -1.020848,-0.09567 -1.476563,-0.28711 -0.455742,-0.191374 -0.852226,-0.460254 -1.189453,-0.80664 -0.337252,-0.346322 -0.601574,-0.747363 -0.792969,-1.203125 -0.191417,-0.455695 -0.287121,-0.938768 -0.287109,-1.449219 -1.2e-5,-0.52861 0.09569,-1.01624 0.287109,-1.462891 0.191395,-0.446577 0.455717,-0.843061 0.792969,-1.189453 0.337227,-0.346316 0.733711,-0.615196 1.189453,-0.80664 0.455715,-0.191368 0.947902,-0.287071 1.476563,-0.28711 z"
         style="font-variant:normal;font-stretch:normal;fill:#ffffff;font-family:Consolas;-inkscape-font-specification:Consolas"
         id="path3030" />
    </g>
  </g>
</svg>
