<svg xmlns="http://www.w3.org/2000/svg" width="64" height="64">
  <path fill="#fff" d="M4.78906 2.5C3.524756 2.499781 2.49978 3.524758 2.5 4.789062v54.423829C2.500858 60.476433 3.525518 61.500219 4.78906 61.5h54.423827c1.26278-.000857 2.28625-1.024328 2.28711-2.287109V4.789062c.00022-1.263543-1.02357-2.288204-2.28711-2.289062z"/>
  <path fill="green" d="M4.7890625 2.5A2.2886633 2.2886633 0 0 0 2.5 4.7890625V59.212891A2.2886633 2.2886633 0 0 0 4.7890625 61.5H59.212891A2.2886633 2.2886633 0 0 0 61.5 59.212891V4.7890625A2.2886633 2.2886633 0 0 0 59.212891 2.5H4.7890625zM44.875 11.162109l5.234375 4.560547C42.859717 22.492205 35.801776 33.199843 31.384766 49.1875l-7.970704.912109c-2.304527-6.241427-4.800563-10.946669-8.689453-16.419921l5.425782-3.50586c2.880659 4.465022 4.991989 9.074858 6.816406 13.587891h.240234c3.88889-13.15501 10.3703-25.157907 17.667969-32.59961z"/>
</svg>
