<?xml version="1.0" encoding="UTF-8" standalone="no"?>
<!-- Created with Inkscape (http://www.inkscape.org/) -->

<svg
   xmlns:dc="http://purl.org/dc/elements/1.1/"
   xmlns:cc="http://creativecommons.org/ns#"
   xmlns:rdf="http://www.w3.org/1999/02/22-rdf-syntax-ns#"
   xmlns:svg="http://www.w3.org/2000/svg"
   xmlns="http://www.w3.org/2000/svg"
   xmlns:sodipodi="http://sodipodi.sourceforge.net/DTD/sodipodi-0.dtd"
   xmlns:inkscape="http://www.inkscape.org/namespaces/inkscape"
   width="64px"
   height="64px"
   id="svg3032"
   version="1.1"
   inkscape:version="0.48.1 "
   sodipodi:docname="Nouveau document 4">
  <defs
     id="defs3034" />
  <sodipodi:namedview
     id="base"
     pagecolor="#ffffff"
     bordercolor="#666666"
     borderopacity="1.0"
     inkscape:pageopacity="0.0"
     inkscape:pageshadow="2"
     inkscape:zoom="5.5"
     inkscape:cx="6.5454545"
     inkscape:cy="40.03409"
     inkscape:current-layer="layer1"
     showgrid="true"
     inkscape:document-units="px"
     inkscape:grid-bbox="true"
     inkscape:window-width="1366"
     inkscape:window-height="716"
     inkscape:window-x="-8"
     inkscape:window-y="-8"
     inkscape:window-maximized="1" />
  <metadata
     id="metadata3037">
    <rdf:RDF>
      <cc:Work
         rdf:about="">
        <dc:format>image/svg+xml</dc:format>
        <dc:type
           rdf:resource="http://purl.org/dc/dcmitype/StillImage" />
        <dc:title></dc:title>
      </cc:Work>
    </rdf:RDF>
  </metadata>
  <g
     id="layer1"
     inkscape:label="Layer 1"
     inkscape:groupmode="layer">
    <rect
       style="fill:#326104;fill-opacity:1"
       id="rect3044"
       width="59.454544"
       height="59.454544"
       x="2.272728"
       y="2.272728" />
    <g
       style="font-size:56px;font-style:normal;font-weight:normal;line-height:125%;letter-spacing:0px;word-spacing:0px;fill:#ffffff;fill-opacity:1;stroke:none;font-family:Sans"
       id="text3040"
       transform="translate(-2,0)">
      <path
         d="m 15.914773,39.24432 c -10e-6,-0.583322 -0.07293,-1.093738 -0.21875,-1.53125 -9e-6,-1.312486 0.87499,-2.479152 2.625,-3.5 1.166653,-0.583317 2.041653,-0.874983 2.625,-0.875 0.729151,0.14585 1.239567,0.58335 1.53125,1.3125 0.874983,2.04168 1.458316,3.427095 1.75,4.15625 0.291648,0.583344 0.583315,0.87501 0.875,0.875 0.291648,10e-6 0.583314,-0.218739 0.875,-0.65625 4.958309,-8.74998 9.406221,-15.531223 13.34375,-20.34375 3.062464,-3.645798 4.958295,-5.760379 5.6875,-6.34375 2.333292,-1.74996 5.104123,-2.6978762 8.3125,-2.8437501 l 0.21875,1.0937501 c -2.479211,2.479204 -6.781291,8.020865 -12.90625,16.625 -5.979195,8.604181 -10.281274,15.385424 -12.90625,20.34375 -0.583354,1.312501 -1.31252,2.114584 -2.1875,2.40625 -0.437519,0.4375 -1.385435,0.583333 -2.84375,0.4375 -1.020849,0.145833 -1.750015,0 -2.1875,-0.4375 -0.437514,-0.291666 -0.875013,-0.874999 -1.3125,-1.75 -1.458345,-3.499995 -2.552094,-6.489575 -3.28125,-8.96875 z"
         id="path3049"
         inkscape:connector-curvature="0" />
    </g>
  </g>
</svg>
