<svg xmlns="http://www.w3.org/2000/svg" width="64" height="64">
  <path fill="green" d="M4.7890625 2.5A2.2886633 2.2886633 0 0 0 2.5 4.7890625V59.212891A2.2886633 2.2886633 0 0 0 4.7890625 61.5H59.212891A2.2886633 2.2886633 0 0 0 61.5 59.212891V4.7890625A2.2886633 2.2886633 0 0 0 59.212891 2.5H4.7890625zM44.875 11.162109l5.234375 4.560547C42.859717 22.492205 35.801776 33.199843 31.384766 49.1875l-7.970704.912109c-2.304527-6.241427-4.800563-10.946669-8.689453-16.419921l5.425782-3.50586c2.880659 4.465022 4.991989 9.074858 6.816406 13.587891h.240234c3.88889-13.15501 10.3703-25.157907 17.667969-32.59961z"/>
</svg>
