<svg xmlns="http://www.w3.org/2000/svg" width="64" height="64">
  <path fill="#fff" d="M32 2C12.545198 1.261311-3.0914555 22.515864 3.3399053 40.865605 8.3871721 59.657356 33.303859 68.347887 48.939274 56.760067 65.406658 46.384597 66.3405 20.014528 50.648299 8.500193 45.399508 4.312994 38.713391 1.983296 32 2z"/>
  <path fill="#4169e1" d="M32 2C12.545198 1.2613113-3.0914555 22.515865 3.3399053 40.865606 8.3871722 59.657357 33.303859 68.347888 48.939274 56.760068 65.406658 46.384598 66.3405 20.014529 50.648299 8.5001927 45.399508 4.3129941 38.713391 1.983296 32 2zm2.625 9.75c2.857896-.261697 4.965786 2.854704 3.939453 5.463776-.902852 3.835771-7.220431 4.947765-8.802149 1.085638C28.504473 15.073017 31.2 11.556313 34.625 11.75zm-5.699219 13.949219h7.75C35.442057 34.549479 34.208333 43.39974 32.974609 52.25h-7.75c1.233724-8.85026 2.467448-17.700521 3.701172-26.550781z"/>
</svg>
