<svg xmlns="http://www.w3.org/2000/svg" width="64" height="64">
  <path fill="#fff" d="M32.171875 6.1816406c-2.093622.08701-2.504073 2.47759-3.462135 3.9063794-8.461554 15.728573-16.951426 31.442801-25.3952773 47.18034-.813222 1.774168 1.00956 3.664339 2.822585 3.274609 17.6846713-.0079 35.3701333.01579 53.0543133-.01184 1.94758-.124693 2.74839-2.625721 1.54564-4.037322-8.85317-16.422115-17.67851-32.860135-26.549064-49.2723044-.439137-.659569-1.224016-1.064419-2.016062-1.039862z"/>
  <path fill="#d90b0b" d="M32.171875 6.1816406c-2.093622.0870132-2.504073 2.4775898-3.462135 3.9063794-8.461554 15.728573-16.951426 31.442801-25.3952774 47.18034-.8132219 1.774168 1.0095604 3.664339 2.8225854 3.274609 17.684671-.0079 35.370134.01579 53.054311-.01184 1.947587-.124693 2.748397-2.625721 1.545642-4.037322-8.853165-16.422115-17.678508-32.860135-26.549064-49.2723046-.439137-.659569-1.224016-1.0644189-2.016062-1.0398618zM30.302734 19.642578h8.25c-1.35026 7.30013-2.700521 14.600261-4.050781 21.900391h-6.300781c.700521-7.30013 1.401041-14.600261 2.101562-21.900391zm.548828 26.449219c3.205295-.170266 4.985479 3.839075 3.383965 6.397636-1.32897 3.038088-6.372964 3.766901-7.903763.549096-1.541882-3.095689 1.095264-7.05441 4.519798-6.946732z"/>
</svg>
