<svg xmlns="http://www.w3.org/2000/svg" width="792" height="296.75" viewBox="0 0 792 296.75"><path fill="#5C4863" d="M160.1 217.372c18.876 0 28.236-9.984 28.236-22.152 0-29.016-47.424-17.472-47.424-36.348 0-7.8 7.02-13.728 18.72-13.728 9.984 0 18.096 4.056 22.464 9.983l4.524-5.772c-5.46-6.084-14.04-11.075-26.988-11.075-17.004 0-26.832 9.36-26.832 20.903 0 27.145 47.58 15.444 47.58 36.036 0 8.73-7.488 15.28-20.124 15.28-10.607 0-19.5-4.99-24.336-11.08l-4.836 5.93c7.488 8.42 16.848 12.01 29.016 12.01zm105.144-1.872v-53.04c0-16.85-12.168-24.18-27.456-24.18-12.48 0-21.216 4.212-29.017 12.636l4.53 5.616c6.87-7.8 14.2-11.076 23.71-11.076 11.08 0 20.13 6.084 20.13 17.315v15.29c-6.55-7.33-15.13-10.76-25.58-10.76-13.1 0-26.36 8.58-26.36 24.96 0 16.23 13.42 25.12 26.37 25.12 10.45 0 18.88-3.43 25.58-10.76v8.89h8.12zm-30.89-4.524c-12.322 0-20.59-7.956-20.59-18.563 0-10.764 8.268-18.72 20.59-18.72 9.05 0 17.474 3.432 22.777 10.45v16.537c-5.3 6.864-13.72 10.296-22.77 10.296zm78.626 6.396c18.875 0 28.235-9.984 28.235-22.152 0-29.016-47.424-17.472-47.424-36.348 0-7.8 7.03-13.728 18.72-13.728 9.99 0 18.1 4.056 22.47 9.983l4.53-5.772c-5.46-6.084-14.04-11.075-26.99-11.075-17 0-26.83 9.36-26.83 20.903 0 27.145 47.58 15.444 47.58 36.036 0 8.73-7.49 15.28-20.12 15.28-10.61 0-19.5-4.99-24.33-11.08l-4.84 5.93c7.49 8.42 16.85 12.01 29.02 12.01zm71.604 0c18.876 0 28.236-9.984 28.236-22.152 0-29.016-47.424-17.472-47.424-36.348 0-7.8 7.02-13.728 18.72-13.728 9.983 0 18.096 4.056 22.464 9.983l4.523-5.772c-5.46-6.084-14.04-11.075-26.987-11.075-17.004 0-26.832 9.36-26.832 20.903 0 27.145 47.58 15.444 47.58 36.036 0 8.73-7.488 15.28-20.124 15.28-10.608 0-19.5-4.99-24.336-11.08l-4.837 5.93c7.49 8.42 16.85 12.01 29.017 12.01zm78.676 1.128c25.376 0 43.066-16.104 43.066-40.748 0-24.4-17.69-40.626-43.188-40.626h-32.086V218.5h32.208zm-.122-15.25h-14.762v-50.874h14.884c16.593 0 25.376 11.103 25.376 25.376 0 13.908-9.394 25.498-25.498 25.498zm94.184 16.714c24.52 0 42.456-17.567 42.456-42.09s-17.935-42.09-42.456-42.09c-24.645 0-42.578 17.567-42.578 42.09s17.934 42.09 42.578 42.09zm0-15.372c-15.128 0-24.767-11.59-24.767-26.718 0-15.25 9.64-26.718 24.767-26.718 15.006 0 24.644 11.468 24.644 26.718 0 15.128-9.638 26.718-24.644 26.718zm94.184 15.372c17.812 0 28.182-9.882 33.916-20.008l-14.884-7.198c-3.416 6.588-10.736 11.834-19.032 11.834-14.884 0-25.62-11.346-25.62-26.718s10.736-26.718 25.62-26.718c8.296 0 15.616 5.246 19.032 11.834l14.884-7.32c-5.734-10.248-16.104-19.886-33.916-19.886-24.52 0-43.432 16.958-43.432 42.09 0 25.01 18.91 42.09 43.432 42.09z"/><path fill="#DD5A6F" d="M105.515 138.305c-.387 1.16-.82 2.32-1.305 3.48s-1.04 2.175-1.668 3.045-1.33 1.52-2.102 1.957c-.773.436-1.596.508-2.466.218-1.16-.192-1.812-1.04-1.958-2.537-.145-1.5.025-2.973.51-4.423.676-2.32 1.666-5.39 2.972-9.208 1.305-3.818 2.803-8 4.495-12.542 1.69-4.543 3.48-9.256 5.365-14.138 1.885-4.88 3.696-9.545 5.437-13.992 1.74-4.447 3.335-8.482 4.785-12.108 1.45-3.625 2.562-6.452 3.335-8.482.29-.58.725-1.063 1.305-1.45s1.185-.58 1.813-.58c.628 0 1.256.193 1.885.58.628.387 1.135 1.015 1.52 1.885.774 2.03.823 4.012.147 5.945-.677 1.547-1.643 3.94-2.9 7.177-1.257 3.24-2.682 6.888-4.276 10.948-1.6 4.06-3.27 8.362-5.01 12.905-1.74 4.543-3.39 8.87-4.93 12.977-1.55 4.11-2.95 7.806-4.21 11.093s-2.18 5.703-2.76 7.25zM182.8 101.91c-1.933-1.45-4.036-2.997-6.307-4.64-2.272-1.643-4.665-3.335-7.178-5.075 1.643 5.897 3.383 11.503 5.22 16.82.29 1.16.17 2.175-.362 3.045s-1.185 1.305-1.958 1.305c-1.257-.193-2.537-.773-3.843-1.74-1.305-.967-2.2-2.127-2.683-3.48-.39-.87-.87-2.272-1.45-4.205s-1.26-4.205-2.03-6.815c-1.65 2.417-3.17 4.785-4.57 7.105s-2.73 4.543-3.99 6.67c-.78 1.063-1.65 1.667-2.61 1.812-.97.146-1.69-.072-2.18-.652-.68-1.063-1.09-2.44-1.23-4.133-.15-1.69.12-3.117.79-4.277l2.61-4.205c1.25-2.03 2.8-4.398 4.64-7.105-2.03.483-4.01.99-5.95 1.522-1.94.532-3.87 1.04-5.8 1.523-1.16.193-2.18 0-3.05-.58-.87-.58-1.26-1.257-1.16-2.03.29-1.257.94-2.392 1.96-3.407 1.01-1.016 2.2-1.716 3.55-2.103.97-.29 2.54-.7 4.71-1.232s4.665-1.136 7.47-1.813c-1.934-1.16-3.84-2.344-5.728-3.552-1.886-1.21-3.795-2.345-5.73-3.408-1.06-.677-1.666-1.547-1.81-2.61-.147-1.063.07-1.837.65-2.32 1.063-.677 2.345-.99 3.844-.942 1.494.048 2.823.46 3.982 1.232.964.483 2.32 1.305 4.06 2.465-.29-1.643-.53-3.214-.73-4.712-.194-1.5-.34-2.925-.437-4.278-.1-1.062.14-1.982.72-2.755s1.255-1.208 2.03-1.305c.675-.193 1.496.024 2.46.653.97.628 1.69 1.812 2.178 3.552.39 1.837.824 3.722 1.308 5.655.49 1.933.97 4.012 1.45 6.235 1.94-2.61 3.82-5.075 5.66-7.395 1.84-2.32 3.58-4.302 5.22-5.945.77-.773 1.646-1.208 2.61-1.305.97-.097 1.74.145 2.32.725.48.387.848 1.16 1.09 2.32.24 1.16-.17 2.465-1.233 3.915-1.06 1.45-2.27 3.07-3.627 4.858-1.358 1.788-2.76 3.697-4.21 5.727 2.516-.483 4.98-.846 7.4-1.088 2.42-.24 4.69-.41 6.816-.507 1.063 0 1.98.193 2.756.58.772.387 1.21.967 1.305 1.74.1.677-.19 1.498-.87 2.465-.675.967-1.883 1.595-3.623 1.885-1.64.29-3.405.58-5.29.87-1.886.29-3.795.628-5.73 1.015 2.224 1.643 4.3 3.262 6.235 4.858 1.935 1.595 3.724 3.117 5.37 4.567.77.773 1.28 1.57 1.52 2.393.24.82.12 1.57-.36 2.247-.486.483-1.308.822-2.468 1.015-1.16.193-2.418-.193-3.77-1.16zm58.87 0c-1.933-1.45-4.036-2.997-6.308-4.64-2.27-1.643-4.664-3.335-7.177-5.075 1.643 5.897 3.383 11.503 5.22 16.82.29 1.16.17 2.175-.363 3.045-.53.87-1.184 1.305-1.957 1.305-1.257-.193-2.537-.773-3.843-1.74s-2.2-2.127-2.683-3.48c-.39-.87-.87-2.272-1.45-4.205-.58-1.933-1.26-4.205-2.03-6.815-1.65 2.417-3.17 4.785-4.57 7.105s-2.73 4.543-3.99 6.67c-.78 1.063-1.65 1.667-2.61 1.812-.97.146-1.69-.072-2.18-.652-.68-1.063-1.09-2.44-1.24-4.133-.15-1.69.12-3.117.8-4.277l2.61-4.205c1.25-2.03 2.8-4.398 4.64-7.105-2.03.483-4.01.99-5.95 1.522-1.94.532-3.87 1.04-5.8 1.523-1.16.193-2.18 0-3.05-.58-.87-.58-1.26-1.257-1.16-2.03.29-1.257.94-2.392 1.96-3.407 1.01-1.016 2.2-1.716 3.55-2.103.97-.29 2.54-.7 4.71-1.232s4.663-1.136 7.466-1.813c-1.93-1.16-3.84-2.344-5.725-3.552-1.886-1.21-3.794-2.345-5.73-3.408-1.06-.677-1.665-1.547-1.81-2.61-.146-1.063.07-1.837.65-2.32 1.064-.677 2.346-.99 3.845-.942 1.496.048 2.824.46 3.984 1.232.966.483 2.32 1.305 4.06 2.465-.29-1.643-.53-3.214-.726-4.712-.198-1.5-.34-2.925-.44-4.278-.1-1.062.143-1.982.723-2.755s1.26-1.208 2.03-1.305c.68-.193 1.5.024 2.467.653.965.628 1.69 1.812 2.173 3.552.386 1.837.82 3.722 1.304 5.655.488 1.933.97 4.012 1.45 6.235 1.94-2.61 3.82-5.075 5.66-7.395 1.838-2.32 3.578-4.302 5.22-5.945.774-.773 1.645-1.208 2.61-1.305.968-.097 1.74.145 2.32.725.483.387.847 1.16 1.088 2.32.246 1.16-.17 2.465-1.23 3.915-1.06 1.45-2.27 3.07-3.62 4.858-1.354 1.788-2.756 3.697-4.206 5.727 2.52-.483 4.98-.846 7.4-1.088 2.42-.24 4.69-.41 6.817-.507 1.065 0 1.984.193 2.76.58.773.387 1.21.967 1.306 1.74.097.677-.193 1.498-.87 2.465-.68.967-1.885 1.595-3.625 1.885-1.64.29-3.403.58-5.29.87-1.884.29-3.793.628-5.73 1.015 2.227 1.643 4.306 3.262 6.238 4.858 1.93 1.595 3.72 3.117 5.363 4.567.773.773 1.28 1.57 1.523 2.393.24.82.12 1.57-.367 2.247-.485.483-1.308.822-2.468 1.015-1.16.193-2.42-.193-3.77-1.16z"/></svg>